<svg xmlns="http://www.w3.org/2000/svg" width="420" height="96" viewBox="0 0 420 96" role="img" aria-label="Defumar Events Platform">
  <defs>
    <linearGradient id="flame" x1="0" y1="0" x2="1" y2="1">
      <stop offset="0" stop-color="#60a5fa"/>
      <stop offset="0.52" stop-color="#2563eb"/>
      <stop offset="1" stop-color="#818cf8"/>
    </linearGradient>
  </defs>
  <rect width="420" height="96" fill="none"/>
  <path d="M45 12c18 11 30 29 30 47 0 17-13 29-31 29-16 0-29-11-29-27 0-13 8-23 17-31-1 9 2 18 9 24 9-10 12-24 4-42Z" fill="url(#flame)"/>
  <path d="M49 40c8 9 12 18 12 27 0 8-6 14-15 14-8 0-14-6-14-14 0-9 6-18 17-27Z" fill="#f8fafc" opacity=".92"/>
  <text x="96" y="44" fill="#f8fafc" font-family="Inter, Arial, sans-serif" font-size="32" font-weight="800" letter-spacing="0">Defumar</text>
  <text x="98" y="70" fill="#bfdbfe" font-family="Inter, Arial, sans-serif" font-size="15" font-weight="600" letter-spacing="1.8">EVENTS PLATFORM</text>
</svg>
