<svg xmlns="http://www.w3.org/2000/svg" width="760" height="520" viewBox="0 0 760 520" role="img" aria-label="Ecosistema de eventos">
  <defs>
    <linearGradient id="panel" x1="0" y1="0" x2="1" y2="1">
      <stop offset="0" stop-color="#0f172a"/>
      <stop offset="1" stop-color="#1e3a8a"/>
    </linearGradient>
    <linearGradient id="line" x1="120" y1="80" x2="640" y2="420" gradientUnits="userSpaceOnUse">
      <stop offset="0" stop-color="#60a5fa"/>
      <stop offset=".55" stop-color="#38bdf8"/>
      <stop offset="1" stop-color="#a78bfa"/>
    </linearGradient>
  </defs>
  <rect x="20" y="20" width="720" height="480" rx="38" fill="url(#panel)" opacity=".88"/>
  <path d="M160 260h440M250 150l260 220M510 150 250 370" stroke="url(#line)" stroke-width="5" opacity=".45"/>
  <g fill="#0b1220" stroke="#60a5fa" stroke-width="4">
    <rect x="90" y="205" width="140" height="110" rx="22"/>
    <rect x="310" y="80" width="140" height="110" rx="22"/>
    <rect x="530" y="205" width="140" height="110" rx="22"/>
    <rect x="310" y="330" width="140" height="110" rx="22"/>
  </g>
  <g fill="#dbeafe" font-family="Inter, Arial, sans-serif" font-size="20" font-weight="700" text-anchor="middle">
    <text x="160" y="268">Pedidos</text>
    <text x="380" y="143">NFC</text>
    <text x="600" y="268">Totem</text>
    <text x="380" y="393">Pagamentos</text>
  </g>
  <circle cx="380" cy="260" r="58" fill="#2563eb"/>
  <text x="380" y="253" fill="#fff" font-family="Inter, Arial, sans-serif" font-size="20" font-weight="800" text-anchor="middle">Defumar</text>
  <text x="380" y="278" fill="#bfdbfe" font-family="Inter, Arial, sans-serif" font-size="13" font-weight="700" text-anchor="middle">Realtime</text>
</svg>
